<svg width="64" height="64" viewBox="0 0 64 64" fill="none" xmlns="http://www.w3.org/2000/svg">
<path d="M32 64C49.6731 64 64 49.6731 64 32C64 14.3269 49.6731 0 32 0C14.3269 0 0 14.3269 0 32C0 49.6731 14.3269 64 32 64Z" fill="#F0B90B"/>
<path fill-rule="evenodd" clip-rule="evenodd" d="M18.3811 23.872L32.0131 10.24L37.4486 15.6755L23.8166 29.3075L18.3811 23.872ZM18.391 40.1619L40.1763 18.3766L45.6118 23.8122L23.8266 45.5974L18.391 40.1619ZM48.3242 26.5398L26.5389 48.3251L31.9741 53.76L53.76 31.975L48.3242 26.5398ZM10.24 32.0115L15.6755 26.576L21.111 32.0115L15.6755 37.447L10.24 32.0115Z" fill="white"/>
</svg>
