<svg width="36" height="36" viewBox="0 0 36 36" fill="none" xmlns="http://www.w3.org/2000/svg">
<path d="M16.571 23.1407L9.01342 31.6461C8.80855 31.8766 8.46135 31.9159 8.21269 31.7334C6.83933 30.7252 5.31525 29.2136 4.26945 27.797C4.08572 27.5481 4.12412 27.1998 4.35546 26.9943L12.8653 19.4334C13.0224 19.2938 13.2412 19.2466 13.4418 19.309L15.6226 19.987C15.8112 20.0457 15.9588 20.1933 16.0174 20.3819L16.6955 22.5642C16.7578 22.7649 16.7106 22.9836 16.571 23.1407Z" fill="#9E0039"/>
<path d="M7.32538 32.5685C7.60532 32.7802 7.64709 33.1842 7.41395 33.4466L5.807 35.2549C3.41139 37.9537 -1.9715 32.6138 0.749715 30.1984L2.55493 28.5945C2.81725 28.3614 3.22092 28.4035 3.43314 28.683C4.46634 30.0436 5.90711 31.4958 7.32538 32.5685Z" fill="#9E0039"/>
<path d="M11.2887 5.50352C10.5553 6.01944 9.92236 6.6531 9.40568 7.38575C8.70971 8.37479 7.23212 8.37824 6.53209 7.38575C6.01046 6.64576 5.37013 6.01022 4.64986 5.50352C3.66127 4.80739 3.65535 3.3307 4.64836 2.62918C5.381 2.11325 6.01466 1.47959 6.53134 0.746942C7.22949 -0.244493 8.70783 -0.245168 9.40643 0.746942C9.92311 1.47959 10.5568 2.11325 11.2894 2.62918C12.2816 3.32898 12.2772 4.80627 11.2887 5.50352Z" fill="#9E0039"/>
<path d="M35.3041 28.2748C34.6494 28.7367 34.0833 29.3029 33.6213 29.9583C32.97 30.8835 31.5869 30.885 30.9345 29.9583C30.4725 29.3029 29.9064 28.7367 29.2509 28.2748C28.325 27.623 28.3234 26.2396 29.2502 25.5872C29.9049 25.126 30.4718 24.5598 30.9337 23.9044C31.5854 22.977 32.9681 22.976 33.6221 23.9044C34.084 24.5598 34.6502 25.126 35.3056 25.5872C36.2348 26.2425 36.2286 27.6251 35.3041 28.2748Z" fill="#9E0039"/>
<path d="M28.4073 3.89201C27.6091 3.27605 27.6075 2.07412 28.4066 1.45785C28.7268 1.21039 29.0148 0.921681 29.2622 0.601476C29.8825 -0.20031 31.0831 -0.195136 31.6979 0.601476C31.9461 0.921681 32.2341 1.21039 32.5543 1.45785C33.3532 2.07404 33.3519 3.2759 32.5535 3.89201C32.2326 4.13948 31.9446 4.42743 31.6971 4.74839C31.0819 5.54613 29.8804 5.5468 29.263 4.74839C29.0155 4.42743 28.7275 4.13948 28.4073 3.89201Z" fill="#9E0039"/>
<path d="M28.5235 20.3462L24.7238 20.2982C24.4403 20.2959 24.1688 20.4316 24.0039 20.6649L21.8097 23.7672C20.8185 25.168 18.6538 24.8211 18.1457 23.1868L17.0179 19.5588C16.9331 19.2858 16.7194 19.0721 16.4464 18.9874L12.8177 17.8588C11.1819 17.3518 10.8383 15.1837 12.238 14.1955L15.3403 12.0013C15.5736 11.8364 15.7108 11.5672 15.707 11.2814L15.6583 7.48174C15.6373 5.77004 17.5877 4.77185 18.9638 5.79748L22.0092 8.07041C22.2379 8.24138 22.5363 8.28863 22.807 8.19639L26.4058 6.97631C28.0248 6.42642 29.5791 7.97315 29.0289 9.59944L27.8081 13.1974C27.7166 13.4689 27.7638 13.7666 27.9348 13.9961L30.207 17.0414C31.231 18.4133 30.2377 20.3689 28.5235 20.3462Z" fill="#9E0039"/>
</svg>
